<?xml version="1.0" encoding="UTF-8" standalone="no"?>
<!-- Created with Inkscape (http://www.inkscape.org/) -->

<svg
   xmlns:dc="http://purl.org/dc/elements/1.1/"
   xmlns:cc="http://creativecommons.org/ns#"
   xmlns:rdf="http://www.w3.org/1999/02/22-rdf-syntax-ns#"
   xmlns:svg="http://www.w3.org/2000/svg"
   xmlns="http://www.w3.org/2000/svg"
   xmlns:sodipodi="http://sodipodi.sourceforge.net/DTD/sodipodi-0.dtd"
   xmlns:inkscape="http://www.inkscape.org/namespaces/inkscape"
   id="svg8710"
   version="1.1"
   inkscape:version="0.48.3.1 r9886"
   width="64"
   height="64"
   sodipodi:docname="ic_location.svg"
   inkscape:export-filename="/home/steve/p/locast_core_example/res/drawable-xhdpi/ic_location_searching_holo_dark.png"
   inkscape:export-xdpi="90"
   inkscape:export-ydpi="90">
  <metadata
     id="metadata8716">
    <rdf:RDF>
      <cc:Work
         rdf:about="">
        <dc:format>image/svg+xml</dc:format>
        <dc:type
           rdf:resource="http://purl.org/dc/dcmitype/StillImage" />
        <dc:title></dc:title>
      </cc:Work>
    </rdf:RDF>
  </metadata>
  <defs
     id="defs8714">
    <clipPath
       clipPathUnits="userSpaceOnUse"
       id="clipPath6208">
      <path
         inkscape:connector-curvature="0"
         d="m 0,2221 1709,0 L 1709,0 0,0 0,2221 z"
         id="path6210" />
    </clipPath>
  </defs>
  <sodipodi:namedview
     pagecolor="#ffffff"
     bordercolor="#666666"
     borderopacity="1"
     objecttolerance="10"
     gridtolerance="10"
     guidetolerance="10"
     inkscape:pageopacity="0"
     inkscape:pageshadow="2"
     inkscape:window-width="640"
     inkscape:window-height="480"
     id="namedview8712"
     showgrid="false"
     inkscape:zoom="3.4960938"
     inkscape:cx="32"
     inkscape:cy="25.928777"
     inkscape:current-layer="layer2" />
  <g
     inkscape:groupmode="layer"
     id="layer1"
     inkscape:label="locked"
     style="display:none"
     sodipodi:insensitive="true">
    <g
       id="g6212"
       transform="matrix(0.66381771,0,0,-0.66381771,31.981214,22.738817)"
       style="color:#000000;fill:#343434;fill-opacity:0.60000209;fill-rule:nonzero;stroke:none;stroke-width:1;marker:none;visibility:visible;display:inline;overflow:visible;enable-background:accumulate">
      <path
         inkscape:connector-curvature="0"
         d="m 0,0 c -7.703,-0.014 -13.941,-6.274 -13.928,-13.98 0.018,-7.702 6.28,-13.938 13.982,-13.92 7.703,0.012 13.94,6.271 13.925,13.974 C 13.967,-6.22 7.708,0.016 0,0"
         style="color:#000000;fill:#343434;fill-opacity:0.60000209;fill-rule:nonzero;stroke:none;stroke-width:1;marker:none;visibility:visible;display:inline;overflow:visible;enable-background:accumulate"
         id="path6214" />
    </g>
  </g>
  <g
     inkscape:groupmode="layer"
     id="layer2"
     inkscape:label="base">
    <g
       id="g6216"
       transform="matrix(0.66381771,0,0,-0.66381771,32.026553,47.231964)"
       style="opacity:1;fill:#343434;fill-opacity:0.60000209000000004;color:#000000;fill-rule:nonzero;stroke:none;stroke-width:0.99999998;marker:none;visibility:visible;display:inline;overflow:visible;enable-background:accumulate">
      <path
         inkscape:connector-curvature="0"
         d="M 0,0 C -12.655,-0.025 -22.965,10.248 -22.988,22.901 -23.016,35.557 -12.741,45.873 -0.085,45.898 12.57,45.922 22.887,35.646 22.908,22.989 22.936,10.336 12.654,0.023 0,0 m 35.105,25 -8.326,-0.014 c -1,13.26 -11.621,23.838 -24.885,24.789 l -0.015,8.331 -3.977,-0.007 0.014,-8.333 C -15.34,48.764 -25.918,38.145 -26.869,24.883 l -8.328,-0.018 0.005,-3.972 8.329,0.015 C -25.859,7.65 -15.24,-2.926 -1.975,-3.877 l 0.012,-8.337 3.976,0.006 -0.017,8.337 c 13.26,1.002 23.835,11.621 24.791,24.885 l 8.33,0.013 L 35.105,25 z"
         style="fill:#343434;fill-opacity:0.60000209000000004;fill-rule:nonzero;stroke:none;color:#000000;stroke-width:0.99999998;marker:none;visibility:visible;display:inline;overflow:visible;enable-background:accumulate"
         id="path6218" />
    </g>
    <rect
       style="display:inline;color:#000000;fill:#343434;fill-opacity:0.60000209000000004;fill-rule:nonzero;stroke:none;stroke-width:0.66381769999999996;marker:none;visibility:visible;overflow:visible;enable-background:accumulate"
       id="rect9748"
       width="10.305085"
       height="10.576271"
       x="-26.847458"
       y="5.1525426" />
    <rect
       y="7.6574488"
       x="-24.40678"
       height="5.5664587"
       width="5.4237294"
       id="rect9750"
       style="display:inline;color:#000000;fill:#ffffff;fill-opacity:0.74509804000000002;fill-rule:nonzero;stroke:none;stroke-width:0.66381769999999996;marker:none;visibility:visible;overflow:visible;enable-background:accumulate" />
  </g>
  <g
     inkscape:groupmode="layer"
     id="layer3"
     inkscape:label="disabled"
     style="display:none"
     sodipodi:insensitive="true">
    <path
       style="font-size:medium;font-style:normal;font-variant:normal;font-weight:normal;font-stretch:normal;text-indent:0;text-align:start;text-decoration:none;line-height:normal;letter-spacing:normal;word-spacing:normal;text-transform:none;direction:ltr;block-progression:tb;writing-mode:lr-tb;text-anchor:start;baseline-shift:baseline;color:#000000;fill:#ffffff;fill-opacity:0.74509804;fill-rule:nonzero;stroke:none;stroke-width:0.6638177;marker:none;visibility:visible;display:inline;overflow:visible;enable-background:accumulate;font-family:Sans;-inkscape-font-specification:Sans"
       d="m 26.625,24.53125 -2.09375,2.09375 5.375,5.375 -5.375,5.375 2.09375,2.09375 5.375,-5.375 5.375,5.375 2.09375,-2.09375 -5.375,-5.375 5.375,-5.375 -2.09375,-2.09375 -5.375,5.375 -5.375,-5.375 z"
       id="path8940"
       inkscape:connector-curvature="0" />
  </g>
</svg>
