<?xml version="1.0" encoding="UTF-8" standalone="no"?>
<!-- Created with Inkscape (http://www.inkscape.org/) -->

<svg
   xmlns:dc="http://purl.org/dc/elements/1.1/"
   xmlns:cc="http://creativecommons.org/ns#"
   xmlns:rdf="http://www.w3.org/1999/02/22-rdf-syntax-ns#"
   xmlns:svg="http://www.w3.org/2000/svg"
   xmlns="http://www.w3.org/2000/svg"
   xmlns:sodipodi="http://sodipodi.sourceforge.net/DTD/sodipodi-0.dtd"
   xmlns:inkscape="http://www.inkscape.org/namespaces/inkscape"
   width="27"
   height="27"
   id="svg2"
   version="1.1"
   inkscape:version="0.48.3.1 r9886"
   sodipodi:docname="ic_launcher_nfftt.svg"
   inkscape:export-filename="/home/steve/p/locast-core-example/ic_launcher-web.png"
   inkscape:export-xdpi="1706.67"
   inkscape:export-ydpi="1706.67">
  <defs
     id="defs4">
    <filter
       id="filter7722"
       style="color-interpolation-filters:sRGB;"
       inkscape:label="Drop Shadow">
      <feFlood
         id="feFlood7724"
         flood-opacity="0.8"
         flood-color="rgb(0,0,0)"
         result="flood" />
      <feComposite
         id="feComposite7726"
         in2="SourceGraphic"
         in="flood"
         operator="in"
         result="composite1" />
      <feGaussianBlur
         id="feGaussianBlur7728"
         in="composite"
         stdDeviation="2"
         result="blur" />
      <feOffset
         id="feOffset7730"
         dx="0"
         dy="2"
         result="offset" />
      <feComposite
         id="feComposite7732"
         in2="offset"
         in="SourceGraphic"
         operator="over"
         result="composite2" />
    </filter>
    <filter
       id="filter7742"
       inkscape:label="Inner Shadow"
       inkscape:menu="Shadows and Glows"
       inkscape:menu-tooltip="Adds a colorizable drop shadow inside"
       color-interpolation-filters="sRGB">
      <feGaussianBlur
         id="feGaussianBlur7744"
         stdDeviation="0.10000000000000001"
         result="result8" />
      <feOffset
         id="feOffset7746"
         dx="0"
         dy="0.10000000000000001"
         result="result11" />
      <feComposite
         id="feComposite7748"
         in2="result11"
         result="result6"
         in="SourceGraphic"
         operator="in" />
      <feFlood
         id="feFlood7750"
         result="result10"
         in="result6"
         flood-opacity="0.12781954887218044"
         flood-color="rgb(0,0,0)" />
      <feBlend
         id="feBlend7752"
         in2="result10"
         mode="normal"
         in="result6"
         result="result12" />
      <feComposite
         id="feComposite7754"
         in2="SourceGraphic"
         result="result2"
         operator="in" />
    </filter>
  </defs>
  <sodipodi:namedview
     id="base"
     pagecolor="#ffffff"
     bordercolor="#666666"
     borderopacity="1.0"
     inkscape:pageopacity="0.0"
     inkscape:pageshadow="2"
     inkscape:zoom="11.313708"
     inkscape:cx="12.557198"
     inkscape:cy="9.7172543"
     inkscape:document-units="px"
     inkscape:current-layer="layer1"
     showgrid="false"
     units="mm"
     inkscape:window-width="1364"
     inkscape:window-height="747"
     inkscape:window-x="0"
     inkscape:window-y="19"
     inkscape:window-maximized="0" />
  <metadata
     id="metadata7">
    <rdf:RDF>
      <cc:Work
         rdf:about="">
        <dc:format>image/svg+xml</dc:format>
        <dc:type
           rdf:resource="http://purl.org/dc/dcmitype/StillImage" />
        <dc:title></dc:title>
      </cc:Work>
    </rdf:RDF>
  </metadata>
  <g
     inkscape:label="Layer 1"
     inkscape:groupmode="layer"
     id="layer1"
     transform="translate(0,-1025.3622)">
    <path
       style="fill:#00a651;fill-opacity:1;filter:url(#filter7722)"
       d="m 235.1875,107.03125 c -1.95074,0.0416 -3.1875,0.29489 -3.1875,0.78125 0,0.45412 1.15317,1.92601 2.5625,3.25 3.86608,3.632 6.00545,7.59847 8.90625,16.59375 4.44423,13.78142 10.58623,19.93551 24.4375,24.4375 8.44731,2.74558 14.78573,6.3604 15.59375,8.90625 0.7145,2.2512 2.525,2.6 4.3125,0.8125 4.74687,-4.74687 -5.61114,-32.75732 -15.46875,-41.84375 -5.51936,-5.08756 -14.79012,-9.53088 -23.9375,-11.46875 -4.74542,-1.00531 -9.96751,-1.538 -13.21875,-1.46875 z"
       id="path4283"
       inkscape:connector-curvature="0"
       transform="matrix(0.14697378,0,0,0.14697378,-30.066423,1011.0361)" />
    <path
       style="fill:#ee1d23;fill-opacity:1;filter:url(#filter7722)"
       d="m 309.625,138.8125 c -2.85088,0.16817 -4.24928,3.34942 -9.53125,15.75 C 294.95073,166.63688 291.08582,172 287.5,172 c -3.30257,0 -6.64086,-2.22542 -8.1875,-5.46875 -2.03096,-4.25896 -3.49549,-4.7926 -13.25,-4.75 -27.08768,0.11828 -44.73896,23.92686 -42.75,57.6875 1.7057,28.95244 13.70162,47.29267 33.71875,51.5 6.0375,1.269 16.89183,0.50686 27.375,-1.9375 10.84061,-2.5277 17.21531,-2.56942 26.125,-0.125 14.81623,4.06491 24.94683,3.61382 35.25,-1.59375 17.07977,-8.63271 26.62953,-33.05366 23.21875,-59.375 -3.66334,-28.27033 -15.00185,-43.02375 -35.15625,-45.8125 -11.91107,-1.64813 -22.19294,0.95278 -31.59375,8 -2.8875,2.16458 -5.25,3.44083 -5.25,2.8125 0,-0.62833 1.44158,-3.88444 3.21875,-7.21875 4.50022,-8.44328 12.21069,-16.56586 18.21875,-19.21875 l 4.9375,-2.1875 -2.78125,-1.84375 c -1.53643,-1.00671 -4.87924,-2.36121 -7.4375,-3.03125 -1.47154,-0.38541 -2.58096,-0.68106 -3.53125,-0.625 z"
       id="path3263"
       inkscape:connector-curvature="0"
       transform="matrix(0.14697378,0,0,0.14697378,-30.066423,1011.0361)" />
    <g
       id="g7738"
       style="filter:url(#filter7742)">
      <path
         transform="matrix(0.14697378,0,0,0.14697378,-30.066423,1011.0361)"
         id="path11253"
         d="m 296.63719,183.28266 c -6.00447,0 -11.59223,2.2844 -15.84317,6.52996 -4.24289,4.25093 -6.637,9.93766 -6.637,15.95022 0,6.00447 2.39144,11.59223 6.637,15.84317 l 6.95815,-6.95815 c -2.38192,-2.37925 -3.63965,-5.52024 -3.63965,-8.88502 0,-3.37013 1.25773,-6.50578 3.63965,-8.88503 2.3712,-2.38192 5.52024,-3.74669 8.88502,-3.74669 3.36478,0 6.61015,1.36477 8.99207,3.74669 2.37925,2.37655 3.63965,5.5149 3.63965,8.88503 0,3.36478 -1.2604,6.5031 -3.63965,8.88502 l 6.95815,6.95815 c 4.24827,-4.24556 6.63434,-9.83599 6.63701,-15.84317 0,-6.01256 -2.38874,-11.70467 -6.63701,-15.95022 -4.24826,-4.25094 -9.94036,-6.52996 -15.95022,-6.52996 z m -36.39648,36.18238 c -2.12949,2.12412 -3.70007,4.58318 -4.81718,7.2793 -1.11172,2.6934 -1.71277,5.55895 -1.71277,8.56387 0,3.00226 0.59834,5.97749 1.71277,8.67093 1.11444,2.69611 2.69307,5.15518 4.81718,7.27929 2.12683,2.12412 4.58586,3.70008 7.2793,4.81719 2.69344,1.11981 5.66867,1.71277 8.67093,1.71277 3.00225,0 5.86776,-0.59296 8.56387,-1.71277 2.69341,-1.11711 5.15248,-2.69307 7.2793,-4.81719 2.11877,-2.12411 4.17489,-6.20881 4.17489,-6.20881 1.35073,2.68536 2.47626,4.0847 4.60308,6.20881 2.12682,2.12412 4.58856,3.70008 7.2793,4.81719 2.69878,1.11981 5.55895,1.71277 8.56388,1.71277 3.00492,0 5.97748,-0.59296 8.67092,-1.71277 2.69879,-1.11711 5.15518,-2.69307 7.2793,-4.81719 2.12411,-2.12411 3.70007,-4.58318 4.81718,-7.27929 1.11443,-2.69344 1.71277,-5.66867 1.71277,-8.67093 0,-3.00492 -0.59567,-5.87314 -1.71277,-8.56387 -1.11711,-2.69612 -2.69307,-5.15518 -4.81718,-7.2793 l -3.5326,3.42555 -3.5326,3.5326 c 1.18692,1.18963 2.16025,2.55865 2.78326,4.06784 0.62568,1.51187 0.96344,3.13346 0.96344,4.81718 0,1.6864 -0.33776,3.3107 -0.96344,4.81718 -0.62301,1.50916 -1.59634,2.87822 -2.78326,4.06785 -1.18963,1.18962 -2.55868,2.15758 -4.06784,2.78326 -1.5092,0.62838 -3.13613,0.96343 -4.81718,0.96343 -1.68373,0 -3.30265,-0.33502 -4.81718,-0.96343 -1.50649,-0.62839 -2.87555,-1.59635 -4.06785,-2.78326 -1.18692,-1.18963 -2.15758,-2.55869 -2.78326,-4.06785 -0.62567,-1.50648 -0.85638,-3.13078 -0.85638,-4.81718 0,-1.68372 0.23088,-3.30802 0.85638,-4.81718 0.62568,-1.50649 1.59634,-2.87821 2.78326,-4.06784 l -3.5326,-3.5326 -3.42555,-3.42555 c -2.12682,2.12412 -3.37893,3.30127 -4.49603,5.99471 -1.11444,-2.69344 -2.1605,-3.87059 -4.28194,-5.99471 l -3.42555,3.42555 -3.5326,3.5326 c 1.1923,1.18963 2.16025,2.55865 2.78326,4.06784 0.62568,1.51187 0.85639,3.13346 0.85639,4.81718 0,1.6864 -0.22815,3.3107 -0.85639,4.81718 -0.62568,1.50916 -1.59364,2.87822 -2.78326,4.06785 -1.1923,1.18962 -2.55868,2.15758 -4.06784,2.78326 -1.5092,0.62838 -3.13613,0.96343 -4.81718,0.96343 -1.68373,0 -3.30799,-0.33502 -4.81718,-0.96343 -1.50649,-0.62839 -2.87822,-1.59635 -4.06785,-2.78326 -1.18692,-1.18963 -2.16292,-2.55869 -2.78326,-4.06785 -0.62567,-1.50648 -0.96343,-3.13078 -0.96343,-4.81718 0,-1.68372 0.33502,-3.30802 0.96343,-4.81718 0.62034,-1.50649 1.59634,-2.87821 2.78326,-4.06784 l -3.5326,-3.5326 -3.5326,-3.42555 z"
         style="opacity:0.90000000000000002;fill:#ffffff;fill-opacity:1;"
         inkscape:connector-curvature="0" />
      <path
         transform="matrix(0.14697378,0,0,0.14697378,-30.066423,1011.0361)"
         id="circle11259"
         d="m 296.63719,198.80469 c -3.79078,0 -6.8511,3.06031 -6.8511,6.8511 0,3.79078 3.06032,6.8511 6.8511,6.8511 3.79079,0 6.95815,-3.06032 6.95815,-6.8511 0,-3.79079 -3.16736,-6.8511 -6.95815,-6.8511 z m -20.44625,29.86652 c -3.78931,0 -6.85111,3.06179 -6.85111,6.8511 0,3.78928 3.0618,6.8511 6.85111,6.8511 3.78927,0 6.8511,-3.06182 6.8511,-6.8511 0,-3.78931 -3.06183,-6.8511 -6.8511,-6.8511 z m 40.46432,0 c -3.79226,0 -6.85111,3.05884 -6.85111,6.8511 0,3.79226 3.05885,6.8511 6.85111,6.8511 3.79225,0 6.8511,-3.05884 6.8511,-6.8511 0,-3.79226 -3.05885,-6.8511 -6.8511,-6.8511 z"
         style="fill:#ffffff;fill-opacity:1;"
         inkscape:connector-curvature="0" />
    </g>
  </g>
</svg>
