<?xml version="1.0" encoding="UTF-8" standalone="no"?>
<!-- Created with Inkscape (http://www.inkscape.org/) -->

<svg
   xmlns:dc="http://purl.org/dc/elements/1.1/"
   xmlns:cc="http://creativecommons.org/ns#"
   xmlns:rdf="http://www.w3.org/1999/02/22-rdf-syntax-ns#"
   xmlns:svg="http://www.w3.org/2000/svg"
   xmlns="http://www.w3.org/2000/svg"
   xmlns:sodipodi="http://sodipodi.sourceforge.net/DTD/sodipodi-0.dtd"
   xmlns:inkscape="http://www.inkscape.org/namespaces/inkscape"
   id="svg8582"
   version="1.1"
   inkscape:version="0.48.3.1 r9886"
   width="64"
   height="64"
   sodipodi:docname="ic_placemark.svg"
   inkscape:export-filename="/home/steve/p/locast_core_example/res/drawable-xhdpi/ic_placemark_holo_dark.png"
   inkscape:export-xdpi="90"
   inkscape:export-ydpi="90">
  <metadata
     id="metadata8588">
    <rdf:RDF>
      <cc:Work
         rdf:about="">
        <dc:format>image/svg+xml</dc:format>
        <dc:type
           rdf:resource="http://purl.org/dc/dcmitype/StillImage" />
        <dc:title></dc:title>
      </cc:Work>
    </rdf:RDF>
  </metadata>
  <defs
     id="defs8586" />
  <sodipodi:namedview
     pagecolor="#ffffff"
     bordercolor="#666666"
     borderopacity="1"
     objecttolerance="10"
     gridtolerance="10"
     guidetolerance="10"
     inkscape:pageopacity="0"
     inkscape:pageshadow="2"
     inkscape:window-width="640"
     inkscape:window-height="480"
     id="namedview8584"
     showgrid="false"
     inkscape:zoom="3.6875"
     inkscape:cx="37.779575"
     inkscape:cy="28.085144"
     inkscape:current-layer="svg8582" />
  <path
     style="fill:#343434;color:#000000;fill-opacity:0.60000209000000004;fill-rule:nonzero;stroke:none;stroke-width:0.66381769999999996;marker:none;visibility:visible;display:inline;overflow:visible;enable-background:accumulate"
     d="m 32.4375,10.25 c -8.436835,0 -12.81567,6.222356 -12.9375,12.0625 0,3.267341 1.004146,5.791727 4.65625,11.5 4.076765,6.434542 6.81372,19.584472 7.84375,19.584472 1.231594,0 3.858268,-13.517295 7.43697,-19.177692 C 43.089074,28.511007 44.5,25.579841 44.5,22.3125 44.5,15.38027 38.951268,10.333723 32.4375,10.25 z m -1,7.1875 c 0.180051,-0.01828 0.377625,0 0.5625,0 2.958,0 5.34375,2.38575 5.34375,5.34375 0,2.958 -2.38575,5.34375 -5.34375,5.34375 -2.958,0 -5.34375,-2.38575 -5.34375,-5.34375 0,-2.773125 2.080489,-5.069473 4.78125,-5.34375 z"
     id="path9900"
     inkscape:connector-curvature="0"
     sodipodi:nodetypes="cccccscssssss" />
  <rect
     style="color:#000000;fill:#343434;fill-opacity:0.60000209;fill-rule:nonzero;stroke:none;stroke-width:0.6638177;marker:none;visibility:visible;display:inline;overflow:visible;enable-background:accumulate"
     id="rect9748"
     width="10.305085"
     height="10.576271"
     x="-14.237288"
     y="6.3728824" />
  <rect
     y="8.8777876"
     x="-11.796611"
     height="5.5664587"
     width="5.4237294"
     id="rect9750"
     style="color:#000000;fill:#ffffff;fill-opacity:0.74509804;fill-rule:nonzero;stroke:none;stroke-width:0.6638177;marker:none;visibility:visible;display:inline;overflow:visible;enable-background:accumulate" />
</svg>
